<svg xmlns="http://www.w3.org/2000/svg" height="667" width="960.0" font-size="16" font-family="sans-serif" stroke-width="2">
<g transform="translate(10.0 0)">
<text fill="hsl(0, 100%, 40%)" y="22">isPrime.2.default 8.20 ns</text>
<g>
<title>8.20 ns ± 698 ps</title>
<rect y="28" rx="5" height="22" width="0.0000019333183165218893" fill="hsl(0, 100%, 80%)" stroke="hsl(0, 100%, 55%)" />
<g stroke="hsl(0, 100%, 40%)"><line x1="0.0000017687304173961084" x2="0.0000020979062156476702" y1="39" y2="39" />
<line x1="0.0000017687304173961084" x2="0.0000017687304173961084" y1="33" y2="45" />
<line x1="0.0000020979062156476702" x2="0.0000020979062156476702" y1="33" y2="45" />
</g>
</g>
<text fill="hsl(30, 100%, 40%)" y="77">isPrime.2.arithmoi 11.4 ns</text>
<g>
<title>11.4 ns ± 226 ps</title>
<rect y="83" rx="5" height="22" width="0.000002684574830296586" fill="hsl(30, 100%, 80%)" stroke="hsl(30, 100%, 55%)" />
<g stroke="hsl(30, 100%, 40%)"><line x1="0.00000263128419247076" x2="0.000002737865468122412" y1="94" y2="94" />
<line x1="0.00000263128419247076" x2="0.00000263128419247076" y1="88" y2="100" />
<line x1="0.000002737865468122412" x2="0.000002737865468122412" y1="88" y2="100" />
</g>
</g>
<text fill="hsl(60, 100%, 40%)" y="132">isPrime.11.default 73.8 μs</text>
<g>
<title>73.8 μs ± 1.3 μs</title>
<rect y="138" rx="5" height="22" width="0.017395348349241623" fill="hsl(60, 100%, 80%)" stroke="hsl(60, 100%, 55%)" />
<g stroke="hsl(60, 100%, 40%)"><line x1="0.017083002017374595" x2="0.01770769468110865" y1="149" y2="149" />
<line x1="0.017083002017374595" x2="0.017083002017374595" y1="143" y2="155" />
<line x1="0.01770769468110865" x2="0.01770769468110865" y1="143" y2="155" />
</g>
</g>
<text fill="hsl(90, 100%, 40%)" y="187">isPrime.11.arithmoi 432  ns</text>
<g>
<title>432  ns ±  11 ns</title>
<rect y="193" rx="5" height="22" width="0.00010189523651221545" fill="hsl(90, 100%, 80%)" stroke="hsl(90, 100%, 55%)" />
<g stroke="hsl(90, 100%, 40%)"><line x1="0.00009937831497171605" x2="0.00010441215805271485" y1="204" y2="204" />
<line x1="0.00009937831497171605" x2="0.00009937831497171605" y1="198" y2="210" />
<line x1="0.00010441215805271485" x2="0.00010441215805271485" y1="198" y2="210" />
</g>
</g>
<text fill="hsl(120, 100%, 40%)" y="242">isPrime.1_009.default 111  μs</text>
<g>
<title>111  μs ± 2.8 μs</title>
<rect y="248" rx="5" height="22" width="0.026145980684700056" fill="hsl(120, 100%, 80%)" stroke="hsl(120, 100%, 55%)" />
<g stroke="hsl(120, 100%, 40%)"><line x1="0.025496669161086165" x2="0.026795292208313948" y1="259" y2="259" />
<line x1="0.025496669161086165" x2="0.025496669161086165" y1="253" y2="265" />
<line x1="0.026795292208313948" x2="0.026795292208313948" y1="253" y2="265" />
</g>
</g>
<text fill="hsl(150, 100%, 40%)" y="297">isPrime.1_009.arithmoi 1.97 μs</text>
<g>
<title>1.97 μs ±  92 ns</title>
<rect y="303" rx="5" height="22" width="0.0004644248432614018" fill="hsl(150, 100%, 80%)" stroke="hsl(150, 100%, 55%)" />
<g stroke="hsl(150, 100%, 40%)"><line x1="0.0004427473436304114" x2="0.0004861023428923922" y1="314" y2="314" />
<line x1="0.0004427473436304114" x2="0.0004427473436304114" y1="308" y2="320" />
<line x1="0.0004861023428923922" x2="0.0004861023428923922" y1="308" y2="320" />
</g>
</g>
<text fill="hsl(180, 100%, 40%)" y="352">isPrime.10_007.default 8.41 ms</text>
<g>
<title>8.41 ms ± 716 μs</title>
<rect y="358" rx="5" height="22" width="1.9820855577633247" fill="hsl(180, 100%, 80%)" stroke="hsl(180, 100%, 55%)" />
<g stroke="hsl(180, 100%, 40%)"><line x1="1.813331799317495" x2="2.1508393162091544" y1="369" y2="369" />
<line x1="1.813331799317495" x2="1.813331799317495" y1="363" y2="375" />
<line x1="2.1508393162091544" x2="2.1508393162091544" y1="363" y2="375" />
</g>
</g>
<text fill="hsl(210, 100%, 40%)" y="407">isPrime.10_007.arithmoi 2.81 μs</text>
<g>
<title>2.81 μs ± 116 ns</title>
<rect y="413" rx="5" height="22" width="0.0006617334298115224" fill="hsl(210, 100%, 80%)" stroke="hsl(210, 100%, 55%)" />
<g stroke="hsl(210, 100%, 40%)"><line x1="0.0006344571120188665" x2="0.0006890097476041783" y1="424" y2="424" />
<line x1="0.0006344571120188665" x2="0.0006344571120188665" y1="418" y2="430" />
<line x1="0.0006890097476041783" x2="0.0006890097476041783" y1="418" y2="430" />
</g>
</g>
<text fill="hsl(240, 100%, 40%)" y="462">isPrime.100_003.default 197  ms</text>
<g>
<title>197  ms ± 3.4 ms</title>
<rect y="468" rx="5" height="22" width="46.52319111073313" fill="hsl(240, 100%, 80%)" stroke="hsl(240, 100%, 55%)" />
<g stroke="hsl(240, 100%, 40%)"><line x1="45.71453804895052" x2="47.33184417251574" y1="479" y2="479" />
<line x1="45.71453804895052" x2="45.71453804895052" y1="473" y2="485" />
<line x1="47.33184417251574" x2="47.33184417251574" y1="473" y2="485" />
</g>
</g>
<text fill="hsl(270, 100%, 40%)" y="517">isPrime.100_003.arithmoi 4.15 μs</text>
<g>
<title>4.15 μs ± 295 ns</title>
<rect y="523" rx="5" height="22" width="0.000979055833935357" fill="hsl(270, 100%, 80%)" stroke="hsl(270, 100%, 55%)" />
<g stroke="hsl(270, 100%, 40%)"><line x1="0.0009095469214650163" x2="0.0010485647464056975" y1="534" y2="534" />
<line x1="0.0009095469214650163" x2="0.0009095469214650163" y1="528" y2="540" />
<line x1="0.0010485647464056975" x2="0.0010485647464056975" y1="528" y2="540" />
</g>
</g>
<g fill="hsl(300, 100%, 40%)">
<text y="572">isPrime.1_000_003.default</text>
<text y="572" x="915.1511665943264" text-anchor="end">3.881 s</text>
</g>
<g>
<title>3.881 s ± 105 ms</title>
<rect y="578" rx="5" height="22" width="915.1511665943264" fill="hsl(300, 100%, 80%)" stroke="hsl(300, 100%, 55%)" />
<g stroke="hsl(300, 100%, 40%)"><line x1="890.3023331886527" x2="940.0" y1="589" y2="589" />
<line x1="890.3023331886527" x2="890.3023331886527" y1="583" y2="595" />
<line x1="940.0" x2="940.0" y1="583" y2="595" />
</g>
</g>
<text fill="hsl(330, 100%, 40%)" y="627">isPrime.1_000_003.arithmoi 7.15 μs</text>
<g>
<title>7.15 μs ± 678 ns</title>
<rect y="633" rx="5" height="22" width="0.0016853918770121186" fill="hsl(330, 100%, 80%)" stroke="hsl(330, 100%, 55%)" />
<g stroke="hsl(330, 100%, 40%)"><line x1="0.0015255991920935321" x2="0.001845184561930705" y1="644" y2="644" />
<line x1="0.0015255991920935321" x2="0.0015255991920935321" y1="638" y2="650" />
<line x1="0.001845184561930705" x2="0.001845184561930705" y1="638" y2="650" />
</g>
</g>
</g>
</svg>
