<svg xmlns="http://www.w3.org/2000/svg" height="667" width="960.0" font-size="16" font-family="sans-serif" stroke-width="2">
<g transform="translate(10.0 0)">
<text fill="hsl(0, 100%, 40%)" y="22">isPrime.2.default 4.36 ns</text>
<g>
<title>4.36 ns ±  24 ps</title>
<rect y="28" rx="5" height="22" width="0.000000852892212264329" fill="hsl(0, 100%, 80%)" stroke="hsl(0, 100%, 55%)" />
<g stroke="hsl(0, 100%, 40%)"><line x1="0.0000008481973927472776" x2="0.0000008575870317813803" y1="39" y2="39" />
<line x1="0.0000008481973927472776" x2="0.0000008481973927472776" y1="33" y2="45" />
<line x1="0.0000008575870317813803" x2="0.0000008575870317813803" y1="33" y2="45" />
</g>
</g>
<text fill="hsl(30, 100%, 40%)" y="77">isPrime.2.arithmoi 6.54 ns</text>
<g>
<title>6.54 ns ± 640 ps</title>
<rect y="83" rx="5" height="22" width="0.000001280120788316002" fill="hsl(30, 100%, 80%)" stroke="hsl(30, 100%, 55%)" />
<g stroke="hsl(30, 100%, 40%)"><line x1="0.0000011549256011946327" x2="0.0000014053159754373713" y1="94" y2="94" />
<line x1="0.0000011549256011946327" x2="0.0000011549256011946327" y1="88" y2="100" />
<line x1="0.0000014053159754373713" x2="0.0000014053159754373713" y1="88" y2="100" />
</g>
</g>
<text fill="hsl(60, 100%, 40%)" y="132">isPrime.11.default 70.7 μs</text>
<g>
<title>70.7 μs ± 5.4 μs</title>
<rect y="138" rx="5" height="22" width="0.01383317146638356" fill="hsl(60, 100%, 80%)" stroke="hsl(60, 100%, 55%)" />
<g stroke="hsl(60, 100%, 40%)"><line x1="0.012779865233635505" x2="0.014886477699131616" y1="149" y2="149" />
<line x1="0.012779865233635505" x2="0.012779865233635505" y1="143" y2="155" />
<line x1="0.014886477699131616" x2="0.014886477699131616" y1="143" y2="155" />
</g>
</g>
<text fill="hsl(90, 100%, 40%)" y="187">isPrime.11.arithmoi 439  ns</text>
<g>
<title>439  ns ±  27 ns</title>
<rect y="193" rx="5" height="22" width="0.00008595471189297492" fill="hsl(90, 100%, 80%)" stroke="hsl(90, 100%, 55%)" />
<g stroke="hsl(90, 100%, 40%)"><line x1="0.00008067851722572871" x2="0.00009123090656022113" y1="204" y2="204" />
<line x1="0.00008067851722572871" x2="0.00008067851722572871" y1="198" y2="210" />
<line x1="0.00009123090656022113" x2="0.00009123090656022113" y1="198" y2="210" />
</g>
</g>
<text fill="hsl(120, 100%, 40%)" y="242">isPrime.1_009.default 152  μs</text>
<g>
<title>152  μs ±  12 μs</title>
<rect y="248" rx="5" height="22" width="0.029671961810134782" fill="hsl(120, 100%, 80%)" stroke="hsl(120, 100%, 55%)" />
<g stroke="hsl(120, 100%, 40%)"><line x1="0.027316387760468953" x2="0.03202753585980061" y1="259" y2="259" />
<line x1="0.027316387760468953" x2="0.027316387760468953" y1="253" y2="265" />
<line x1="0.03202753585980061" x2="0.03202753585980061" y1="253" y2="265" />
</g>
</g>
<text fill="hsl(150, 100%, 40%)" y="297">isPrime.1_009.arithmoi 2.22 μs</text>
<g>
<title>2.22 μs ± 202 ns</title>
<rect y="303" rx="5" height="22" width="0.00043353567483787176" fill="hsl(150, 100%, 80%)" stroke="hsl(150, 100%, 55%)" />
<g stroke="hsl(150, 100%, 40%)"><line x1="0.00039402250884252855" x2="0.00047304884083321496" y1="314" y2="314" />
<line x1="0.00039402250884252855" x2="0.00039402250884252855" y1="308" y2="320" />
<line x1="0.00047304884083321496" x2="0.00047304884083321496" y1="308" y2="320" />
</g>
</g>
<text fill="hsl(180, 100%, 40%)" y="352">isPrime.10_007.default 9.36 ms</text>
<g>
<title>9.36 ms ± 609 μs</title>
<rect y="358" rx="5" height="22" width="1.8306369680722745" fill="hsl(180, 100%, 80%)" stroke="hsl(180, 100%, 55%)" />
<g stroke="hsl(180, 100%, 40%)"><line x1="1.7114281637051403" x2="1.9498457724394087" y1="369" y2="369" />
<line x1="1.7114281637051403" x2="1.7114281637051403" y1="363" y2="375" />
<line x1="1.9498457724394087" x2="1.9498457724394087" y1="363" y2="375" />
</g>
</g>
<text fill="hsl(210, 100%, 40%)" y="407">isPrime.10_007.arithmoi 2.87 μs</text>
<g>
<title>2.87 μs ± 189 ns</title>
<rect y="413" rx="5" height="22" width="0.0005612613696789319" fill="hsl(210, 100%, 80%)" stroke="hsl(210, 100%, 55%)" />
<g stroke="hsl(210, 100%, 40%)"><line x1="0.0005242161138097187" x2="0.000598306625548145" y1="424" y2="424" />
<line x1="0.0005242161138097187" x2="0.0005242161138097187" y1="418" y2="430" />
<line x1="0.000598306625548145" x2="0.000598306625548145" y1="418" y2="430" />
</g>
</g>
<text fill="hsl(240, 100%, 40%)" y="462">isPrime.100_003.default 281  ms</text>
<g>
<title>281  ms ± 5.1 ms</title>
<rect y="468" rx="5" height="22" width="55.02248349064427" fill="hsl(240, 100%, 80%)" stroke="hsl(240, 100%, 55%)" />
<g stroke="hsl(240, 100%, 40%)"><line x1="54.019182664763335" x2="56.025784316525204" y1="479" y2="479" />
<line x1="54.019182664763335" x2="54.019182664763335" y1="473" y2="485" />
<line x1="56.025784316525204" x2="56.025784316525204" y1="473" y2="485" />
</g>
</g>
<text fill="hsl(270, 100%, 40%)" y="517">isPrime.100_003.arithmoi 4.12 μs</text>
<g>
<title>4.12 μs ± 340 ns</title>
<rect y="523" rx="5" height="22" width="0.0008068589200472008" fill="hsl(270, 100%, 80%)" stroke="hsl(270, 100%, 55%)" />
<g stroke="hsl(270, 100%, 40%)"><line x1="0.0007402648613726261" x2="0.0008734529787217754" y1="534" y2="534" />
<line x1="0.0007402648613726261" x2="0.0007402648613726261" y1="528" y2="540" />
<line x1="0.0008734529787217754" x2="0.0008734529787217754" y1="528" y2="540" />
</g>
</g>
<g fill="hsl(300, 100%, 40%)">
<text y="572">isPrime.1_000_003.default</text>
<text y="572" x="939.3043051334568" text-anchor="end">4.802 s</text>
</g>
<g>
<title>4.802 s ± 3.6 ms</title>
<rect y="578" rx="5" height="22" width="939.3043051334568" fill="hsl(300, 100%, 80%)" stroke="hsl(300, 100%, 55%)" />
<g stroke="hsl(300, 100%, 40%)"><line x1="938.6086102669135" x2="940.0" y1="589" y2="589" />
<line x1="938.6086102669135" x2="938.6086102669135" y1="583" y2="595" />
<line x1="940.0" x2="940.0" y1="583" y2="595" />
</g>
</g>
<text fill="hsl(330, 100%, 40%)" y="627">isPrime.1_000_003.arithmoi 6.27 μs</text>
<g>
<title>6.27 μs ± 431 ns</title>
<rect y="633" rx="5" height="22" width="0.0012259044256806534" fill="hsl(330, 100%, 80%)" stroke="hsl(330, 100%, 55%)" />
<g stroke="hsl(330, 100%, 40%)"><line x1="0.0011416672352609998" x2="0.001310141616100307" y1="644" y2="644" />
<line x1="0.0011416672352609998" x2="0.0011416672352609998" y1="638" y2="650" />
<line x1="0.001310141616100307" x2="0.001310141616100307" y1="638" y2="650" />
</g>
</g>
</g>
</svg>
