<svg xmlns="http://www.w3.org/2000/svg" height="667" width="960.0" font-size="16" font-family="sans-serif" stroke-width="2">
<g transform="translate(10.0 0)">
<text fill="hsl(0, 100%, 40%)" y="22">isPrime.2.default 9.58 ns</text>
<g>
<title>9.58 ns ± 922 ps</title>
<rect y="28" rx="5" height="22" width="0.0000017149660393111155" fill="hsl(0, 100%, 80%)" stroke="hsl(0, 100%, 55%)" />
<g stroke="hsl(0, 100%, 40%)"><line x1="0.0000015499828706712106" x2="0.0000018799492079510203" y1="39" y2="39" />
<line x1="0.0000015499828706712106" x2="0.0000015499828706712106" y1="33" y2="45" />
<line x1="0.0000018799492079510203" x2="0.0000018799492079510203" y1="33" y2="45" />
</g>
</g>
<text fill="hsl(30, 100%, 40%)" y="77">isPrime.2.arithmoi 11.1 ns</text>
<g>
<title>11.1 ns ± 1.1 ns</title>
<rect y="83" rx="5" height="22" width="0.0000019916080986574205" fill="hsl(30, 100%, 80%)" stroke="hsl(30, 100%, 55%)" />
<g stroke="hsl(30, 100%, 40%)"><line x1="0.000001792984110381613" x2="0.000002190232086933228" y1="94" y2="94" />
<line x1="0.000001792984110381613" x2="0.000001792984110381613" y1="88" y2="100" />
<line x1="0.000002190232086933228" x2="0.000002190232086933228" y1="88" y2="100" />
</g>
</g>
<text fill="hsl(60, 100%, 40%)" y="132">isPrime.11.default 65.9 μs</text>
<g>
<title>65.9 μs ± 5.3 μs</title>
<rect y="138" rx="5" height="22" width="0.011788930470836647" fill="hsl(60, 100%, 80%)" stroke="hsl(60, 100%, 55%)" />
<g stroke="hsl(60, 100%, 40%)"><line x1="0.0108330111919969" x2="0.012744849749676395" y1="149" y2="149" />
<line x1="0.0108330111919969" x2="0.0108330111919969" y1="143" y2="155" />
<line x1="0.012744849749676395" x2="0.012744849749676395" y1="143" y2="155" />
</g>
</g>
<text fill="hsl(90, 100%, 40%)" y="187">isPrime.11.arithmoi 519  ns</text>
<g>
<title>519  ns ±  23 ns</title>
<rect y="193" rx="5" height="22" width="0.00009286494578331897" fill="hsl(90, 100%, 80%)" stroke="hsl(90, 100%, 55%)" />
<g stroke="hsl(90, 100%, 40%)"><line x1="0.00008877651255437694" x2="0.000096953379012261" y1="204" y2="204" />
<line x1="0.00008877651255437694" x2="0.00008877651255437694" y1="198" y2="210" />
<line x1="0.000096953379012261" x2="0.000096953379012261" y1="198" y2="210" />
</g>
</g>
<text fill="hsl(120, 100%, 40%)" y="242">isPrime.1_009.default 140  μs</text>
<g>
<title>140  μs ±  13 μs</title>
<rect y="248" rx="5" height="22" width="0.025138026960024505" fill="hsl(120, 100%, 80%)" stroke="hsl(120, 100%, 55%)" />
<g stroke="hsl(120, 100%, 40%)"><line x1="0.022818000359671586" x2="0.027458053560377425" y1="259" y2="259" />
<line x1="0.022818000359671586" x2="0.022818000359671586" y1="253" y2="265" />
<line x1="0.027458053560377425" x2="0.027458053560377425" y1="253" y2="265" />
</g>
</g>
<text fill="hsl(150, 100%, 40%)" y="297">isPrime.1_009.arithmoi 2.25 μs</text>
<g>
<title>2.25 μs ± 210 ns</title>
<rect y="303" rx="5" height="22" width="0.0004031202679239096" fill="hsl(150, 100%, 80%)" stroke="hsl(150, 100%, 55%)" />
<g stroke="hsl(150, 100%, 40%)"><line x1="0.00036558069202084195" x2="0.00044065984382697724" y1="314" y2="314" />
<line x1="0.00036558069202084195" x2="0.00036558069202084195" y1="308" y2="320" />
<line x1="0.00044065984382697724" x2="0.00044065984382697724" y1="308" y2="320" />
</g>
</g>
<text fill="hsl(180, 100%, 40%)" y="352">isPrime.10_007.default 9.09 ms</text>
<g>
<title>9.09 ms ± 508 μs</title>
<rect y="358" rx="5" height="22" width="1.6264316332937991" fill="hsl(180, 100%, 80%)" stroke="hsl(180, 100%, 55%)" />
<g stroke="hsl(180, 100%, 40%)"><line x1="1.5355356485377825" x2="1.7173276180498158" y1="369" y2="369" />
<line x1="1.5355356485377825" x2="1.5355356485377825" y1="363" y2="375" />
<line x1="1.7173276180498158" x2="1.7173276180498158" y1="363" y2="375" />
</g>
</g>
<text fill="hsl(210, 100%, 40%)" y="407">isPrime.10_007.arithmoi 2.93 μs</text>
<g>
<title>2.93 μs ± 169 ns</title>
<rect y="413" rx="5" height="22" width="0.0005244265583635543" fill="hsl(210, 100%, 80%)" stroke="hsl(210, 100%, 55%)" />
<g stroke="hsl(210, 100%, 40%)"><line x1="0.000494134073924604" x2="0.0005547190428025047" y1="424" y2="424" />
<line x1="0.000494134073924604" x2="0.000494134073924604" y1="418" y2="430" />
<line x1="0.0005547190428025047" x2="0.0005547190428025047" y1="418" y2="430" />
</g>
</g>
<text fill="hsl(240, 100%, 40%)" y="462">isPrime.100_003.default 277  ms</text>
<g>
<title>277  ms ± 6.9 ms</title>
<rect y="468" rx="5" height="22" width="49.63374044583316" fill="hsl(240, 100%, 80%)" stroke="hsl(240, 100%, 55%)" />
<g stroke="hsl(240, 100%, 40%)"><line x1="48.39988857065085" x2="50.86759232101547" y1="479" y2="479" />
<line x1="48.39988857065085" x2="48.39988857065085" y1="473" y2="485" />
<line x1="50.86759232101547" x2="50.86759232101547" y1="473" y2="485" />
</g>
</g>
<text fill="hsl(270, 100%, 40%)" y="517">isPrime.100_003.arithmoi 4.16 μs</text>
<g>
<title>4.16 μs ± 343 ns</title>
<rect y="523" rx="5" height="22" width="0.0007436534013799923" fill="hsl(270, 100%, 80%)" stroke="hsl(270, 100%, 55%)" />
<g stroke="hsl(270, 100%, 40%)"><line x1="0.0006822438745399521" x2="0.0008050629282200326" y1="534" y2="534" />
<line x1="0.0006822438745399521" x2="0.0006822438745399521" y1="528" y2="540" />
<line x1="0.0008050629282200326" x2="0.0008050629282200326" y1="528" y2="540" />
</g>
</g>
<g fill="hsl(300, 100%, 40%)">
<text y="572">isPrime.1_000_003.default</text>
<text y="572" x="937.4690607807024" text-anchor="end">5.239 s</text>
</g>
<g>
<title>5.239 s ±  14 ms</title>
<rect y="578" rx="5" height="22" width="937.4690607807024" fill="hsl(300, 100%, 80%)" stroke="hsl(300, 100%, 55%)" />
<g stroke="hsl(300, 100%, 40%)"><line x1="934.9381215614048" x2="940.0" y1="589" y2="589" />
<line x1="934.9381215614048" x2="934.9381215614048" y1="583" y2="595" />
<line x1="940.0" x2="940.0" y1="583" y2="595" />
</g>
</g>
<text fill="hsl(330, 100%, 40%)" y="627">isPrime.1_000_003.arithmoi 6.00 μs</text>
<g>
<title>6.00 μs ± 336 ns</title>
<rect y="633" rx="5" height="22" width="0.0010743045440680288" fill="hsl(330, 100%, 80%)" stroke="hsl(330, 100%, 55%)" />
<g stroke="hsl(330, 100%, 40%)"><line x1="0.0010141923360703306" x2="0.001134416752065727" y1="644" y2="644" />
<line x1="0.0010141923360703306" x2="0.0010141923360703306" y1="638" y2="650" />
<line x1="0.001134416752065727" x2="0.001134416752065727" y1="638" y2="650" />
</g>
</g>
</g>
</svg>
