<svg xmlns="http://www.w3.org/2000/svg" height="667" width="960.0" font-size="16" font-family="sans-serif" stroke-width="2">
<g transform="translate(10.0 0)">
<text fill="hsl(0, 100%, 40%)" y="22">isPrime.2.default 9.75 ns</text>
<g>
<title>9.75 ns ± 940 ps</title>
<rect y="28" rx="5" height="22" width="0.0000017260285521738058" fill="hsl(0, 100%, 80%)" stroke="hsl(0, 100%, 55%)" />
<g stroke="hsl(0, 100%, 40%)"><line x1="0.0000015596216968873055" x2="0.000001892435407460306" y1="39" y2="39" />
<line x1="0.0000015596216968873055" x2="0.0000015596216968873055" y1="33" y2="45" />
<line x1="0.000001892435407460306" x2="0.000001892435407460306" y1="33" y2="45" />
</g>
</g>
<text fill="hsl(30, 100%, 40%)" y="77">isPrime.2.arithmoi 12.6 ns</text>
<g>
<title>12.6 ns ± 356 ps</title>
<rect y="83" rx="5" height="22" width="0.0000022270194037278438" fill="hsl(30, 100%, 80%)" stroke="hsl(30, 100%, 55%)" />
<g stroke="hsl(30, 100%, 40%)"><line x1="0.0000021639972330023183" x2="0.0000022900415744533692" y1="94" y2="94" />
<line x1="0.0000021639972330023183" x2="0.0000021639972330023183" y1="88" y2="100" />
<line x1="0.0000022900415744533692" x2="0.0000022900415744533692" y1="88" y2="100" />
</g>
</g>
<text fill="hsl(60, 100%, 40%)" y="132">isPrime.11.default 39.9 μs</text>
<g>
<title>39.9 μs ± 1.7 μs</title>
<rect y="138" rx="5" height="22" width="0.007068686693945043" fill="hsl(60, 100%, 80%)" stroke="hsl(60, 100%, 55%)" />
<g stroke="hsl(60, 100%, 40%)"><line x1="0.006775434619959283" x2="0.007361938767930803" y1="149" y2="149" />
<line x1="0.006775434619959283" x2="0.006775434619959283" y1="143" y2="155" />
<line x1="0.007361938767930803" x2="0.007361938767930803" y1="143" y2="155" />
</g>
</g>
<text fill="hsl(90, 100%, 40%)" y="187">isPrime.11.arithmoi 522  ns</text>
<g>
<title>522  ns ±  48 ns</title>
<rect y="193" rx="5" height="22" width="0.00009236642639817486" fill="hsl(90, 100%, 80%)" stroke="hsl(90, 100%, 55%)" />
<g stroke="hsl(90, 100%, 40%)"><line x1="0.00008390552294970359" x2="0.00010082732984664612" y1="204" y2="204" />
<line x1="0.00008390552294970359" x2="0.00008390552294970359" y1="198" y2="210" />
<line x1="0.00010082732984664612" x2="0.00010082732984664612" y1="198" y2="210" />
</g>
</g>
<text fill="hsl(120, 100%, 40%)" y="242">isPrime.1_009.default 77.9 μs</text>
<g>
<title>77.9 μs ± 5.4 μs</title>
<rect y="248" rx="5" height="22" width="0.01378506936290594" fill="hsl(120, 100%, 80%)" stroke="hsl(120, 100%, 55%)" />
<g stroke="hsl(120, 100%, 40%)"><line x1="0.012829684411735195" x2="0.014740454314076685" y1="259" y2="259" />
<line x1="0.012829684411735195" x2="0.012829684411735195" y1="253" y2="265" />
<line x1="0.014740454314076685" x2="0.014740454314076685" y1="253" y2="265" />
</g>
</g>
<text fill="hsl(150, 100%, 40%)" y="297">isPrime.1_009.arithmoi 2.31 μs</text>
<g>
<title>2.31 μs ± 217 ns</title>
<rect y="303" rx="5" height="22" width="0.00040896732949489495" fill="hsl(150, 100%, 80%)" stroke="hsl(150, 100%, 55%)" />
<g stroke="hsl(150, 100%, 40%)"><line x1="0.0003705868275230499" x2="0.00044734783146674003" y1="314" y2="314" />
<line x1="0.0003705868275230499" x2="0.0003705868275230499" y1="308" y2="320" />
<line x1="0.00044734783146674003" x2="0.00044734783146674003" y1="308" y2="320" />
</g>
</g>
<text fill="hsl(180, 100%, 40%)" y="352">isPrime.10_007.default 9.16 ms</text>
<g>
<title>9.16 ms ± 374 μs</title>
<rect y="358" rx="5" height="22" width="1.621964963048976" fill="hsl(180, 100%, 80%)" stroke="hsl(180, 100%, 55%)" />
<g stroke="hsl(180, 100%, 40%)"><line x1="1.5556861676786369" x2="1.6882437584193153" y1="369" y2="369" />
<line x1="1.5556861676786369" x2="1.5556861676786369" y1="363" y2="375" />
<line x1="1.6882437584193153" x2="1.6882437584193153" y1="363" y2="375" />
</g>
</g>
<text fill="hsl(210, 100%, 40%)" y="407">isPrime.10_007.arithmoi 3.03 μs</text>
<g>
<title>3.03 μs ± 190 ns</title>
<rect y="413" rx="5" height="22" width="0.0005365849238426815" fill="hsl(210, 100%, 80%)" stroke="hsl(210, 100%, 55%)" />
<g stroke="hsl(210, 100%, 40%)"><line x1="0.0005028772679901369" x2="0.0005702925796952261" y1="424" y2="424" />
<line x1="0.0005028772679901369" x2="0.0005028772679901369" y1="418" y2="430" />
<line x1="0.0005702925796952261" x2="0.0005702925796952261" y1="418" y2="430" />
</g>
</g>
<text fill="hsl(240, 100%, 40%)" y="462">isPrime.100_003.default 278  ms</text>
<g>
<title>278  ms ± 6.0 ms</title>
<rect y="468" rx="5" height="22" width="49.25542364252957" fill="hsl(240, 100%, 80%)" stroke="hsl(240, 100%, 55%)" />
<g stroke="hsl(240, 100%, 40%)"><line x1="48.189136030446065" x2="50.32171125461308" y1="479" y2="479" />
<line x1="48.189136030446065" x2="48.189136030446065" y1="473" y2="485" />
<line x1="50.32171125461308" x2="50.32171125461308" y1="473" y2="485" />
</g>
</g>
<text fill="hsl(270, 100%, 40%)" y="517">isPrime.100_003.arithmoi 4.18 μs</text>
<g>
<title>4.18 μs ± 379 ns</title>
<rect y="523" rx="5" height="22" width="0.0007391006504977966" fill="hsl(270, 100%, 80%)" stroke="hsl(270, 100%, 55%)" />
<g stroke="hsl(270, 100%, 40%)"><line x1="0.0006719246814186088" x2="0.0008062766195769844" y1="534" y2="534" />
<line x1="0.0006719246814186088" x2="0.0006719246814186088" y1="528" y2="540" />
<line x1="0.0008062766195769844" x2="0.0008062766195769844" y1="528" y2="540" />
</g>
</g>
<g fill="hsl(300, 100%, 40%)">
<text y="572">isPrime.1_000_003.default</text>
<text y="572" x="938.1136580125578" text-anchor="end">5.299 s</text>
</g>
<g>
<title>5.299 s ±  11 ms</title>
<rect y="578" rx="5" height="22" width="938.1136580125578" fill="hsl(300, 100%, 80%)" stroke="hsl(300, 100%, 55%)" />
<g stroke="hsl(300, 100%, 40%)"><line x1="936.2273160251157" x2="940.0" y1="589" y2="589" />
<line x1="936.2273160251157" x2="936.2273160251157" y1="583" y2="595" />
<line x1="940.0" x2="940.0" y1="583" y2="595" />
</g>
</g>
<text fill="hsl(330, 100%, 40%)" y="627">isPrime.1_000_003.arithmoi 6.03 μs</text>
<g>
<title>6.03 μs ± 394 ns</title>
<rect y="633" rx="5" height="22" width="0.0010671576034095756" fill="hsl(330, 100%, 80%)" stroke="hsl(330, 100%, 55%)" />
<g stroke="hsl(330, 100%, 40%)"><line x1="0.0009974416284158657" x2="0.0011368735784032854" y1="644" y2="644" />
<line x1="0.0009974416284158657" x2="0.0009974416284158657" y1="638" y2="650" />
<line x1="0.0011368735784032854" x2="0.0011368735784032854" y1="638" y2="650" />
</g>
</g>
</g>
</svg>
