<svg xmlns="http://www.w3.org/2000/svg" height="667" width="960.0" font-size="16" font-family="sans-serif" stroke-width="2">
<g transform="translate(10.0 0)">
<text fill="hsl(0, 100%, 40%)" y="22">isPrime.2.default 8.85 ns</text>
<g>
<title>8.85 ns ± 672 ps</title>
<rect y="28" rx="5" height="22" width="0.0000015656826223915621" fill="hsl(0, 100%, 80%)" stroke="hsl(0, 100%, 55%)" />
<g stroke="hsl(0, 100%, 40%)"><line x1="0.0000014468103229624433" x2="0.000001684554921820681" y1="39" y2="39" />
<line x1="0.0000014468103229624433" x2="0.0000014468103229624433" y1="33" y2="45" />
<line x1="0.000001684554921820681" x2="0.000001684554921820681" y1="33" y2="45" />
</g>
</g>
<text fill="hsl(30, 100%, 40%)" y="77">isPrime.2.arithmoi 10.8 ns</text>
<g>
<title>10.8 ns ± 678 ps</title>
<rect y="83" rx="5" height="22" width="0.000001902841257379509" fill="hsl(30, 100%, 80%)" stroke="hsl(30, 100%, 55%)" />
<g stroke="hsl(30, 100%, 40%)"><line x1="0.0000017829075981340588" x2="0.000002022774916624959" y1="94" y2="94" />
<line x1="0.0000017829075981340588" x2="0.0000017829075981340588" y1="88" y2="100" />
<line x1="0.000002022774916624959" x2="0.000002022774916624959" y1="88" y2="100" />
</g>
</g>
<text fill="hsl(60, 100%, 40%)" y="132">isPrime.11.default 69.2 μs</text>
<g>
<title>69.2 μs ± 2.9 μs</title>
<rect y="138" rx="5" height="22" width="0.012244848057292633" fill="hsl(60, 100%, 80%)" stroke="hsl(60, 100%, 55%)" />
<g stroke="hsl(60, 100%, 40%)"><line x1="0.011735088966253238" x2="0.012754607148332028" y1="149" y2="149" />
<line x1="0.011735088966253238" x2="0.011735088966253238" y1="143" y2="155" />
<line x1="0.012754607148332028" x2="0.012754607148332028" y1="143" y2="155" />
</g>
</g>
<text fill="hsl(90, 100%, 40%)" y="187">isPrime.11.arithmoi 528  ns</text>
<g>
<title>528  ns ±  44 ns</title>
<rect y="193" rx="5" height="22" width="0.00009346122270651193" fill="hsl(90, 100%, 80%)" stroke="hsl(90, 100%, 55%)" />
<g stroke="hsl(90, 100%, 40%)"><line x1="0.0000856358167807004" x2="0.00010128662863232346" y1="204" y2="204" />
<line x1="0.0000856358167807004" x2="0.0000856358167807004" y1="198" y2="210" />
<line x1="0.00010128662863232346" x2="0.00010128662863232346" y1="198" y2="210" />
</g>
</g>
<text fill="hsl(120, 100%, 40%)" y="242">isPrime.1_009.default 148  μs</text>
<g>
<title>148  μs ±  12 μs</title>
<rect y="248" rx="5" height="22" width="0.026107793107039843" fill="hsl(120, 100%, 80%)" stroke="hsl(120, 100%, 55%)" />
<g stroke="hsl(120, 100%, 40%)"><line x1="0.02407289746131238" x2="0.028142688752767306" y1="259" y2="259" />
<line x1="0.02407289746131238" x2="0.02407289746131238" y1="253" y2="265" />
<line x1="0.028142688752767306" x2="0.028142688752767306" y1="253" y2="265" />
</g>
</g>
<text fill="hsl(150, 100%, 40%)" y="297">isPrime.1_009.arithmoi 2.31 μs</text>
<g>
<title>2.31 μs ± 183 ns</title>
<rect y="303" rx="5" height="22" width="0.00040797786873266064" fill="hsl(150, 100%, 80%)" stroke="hsl(150, 100%, 55%)" />
<g stroke="hsl(150, 100%, 40%)"><line x1="0.0003756120549202395" x2="0.00044034368254508176" y1="314" y2="314" />
<line x1="0.0003756120549202395" x2="0.0003756120549202395" y1="308" y2="320" />
<line x1="0.00044034368254508176" x2="0.00044034368254508176" y1="308" y2="320" />
</g>
</g>
<text fill="hsl(180, 100%, 40%)" y="352">isPrime.10_007.default 9.25 ms</text>
<g>
<title>9.25 ms ± 554 μs</title>
<rect y="358" rx="5" height="22" width="1.6358712315120725" fill="hsl(180, 100%, 80%)" stroke="hsl(180, 100%, 55%)" />
<g stroke="hsl(180, 100%, 40%)"><line x1="1.5377898040966616" x2="1.7339526589274834" y1="369" y2="369" />
<line x1="1.5377898040966616" x2="1.5377898040966616" y1="363" y2="375" />
<line x1="1.7339526589274834" x2="1.7339526589274834" y1="363" y2="375" />
</g>
</g>
<text fill="hsl(210, 100%, 40%)" y="407">isPrime.10_007.arithmoi 2.86 μs</text>
<g>
<title>2.86 μs ± 174 ns</title>
<rect y="413" rx="5" height="22" width="0.0005055688424845181" fill="hsl(210, 100%, 80%)" stroke="hsl(210, 100%, 55%)" />
<g stroke="hsl(210, 100%, 40%)"><line x1="0.000474802144128703" x2="0.0005363355408403332" y1="424" y2="424" />
<line x1="0.000474802144128703" x2="0.000474802144128703" y1="418" y2="430" />
<line x1="0.0005363355408403332" x2="0.0005363355408403332" y1="418" y2="430" />
</g>
</g>
<text fill="hsl(240, 100%, 40%)" y="462">isPrime.100_003.default 279  ms</text>
<g>
<title>279  ms ± 6.9 ms</title>
<rect y="468" rx="5" height="22" width="49.4393289677117" fill="hsl(240, 100%, 80%)" stroke="hsl(240, 100%, 55%)" />
<g stroke="hsl(240, 100%, 40%)"><line x1="48.22228308469852" x2="50.65637485072489" y1="479" y2="479" />
<line x1="48.22228308469852" x2="48.22228308469852" y1="473" y2="485" />
<line x1="50.65637485072489" x2="50.65637485072489" y1="473" y2="485" />
</g>
</g>
<text fill="hsl(270, 100%, 40%)" y="517">isPrime.100_003.arithmoi 4.10 μs</text>
<g>
<title>4.10 μs ± 348 ns</title>
<rect y="523" rx="5" height="22" width="0.0007249627070116881" fill="hsl(270, 100%, 80%)" stroke="hsl(270, 100%, 55%)" />
<g stroke="hsl(270, 100%, 40%)"><line x1="0.0006633946392127244" x2="0.0007865307748106519" y1="534" y2="534" />
<line x1="0.0006633946392127244" x2="0.0006633946392127244" y1="528" y2="540" />
<line x1="0.0007865307748106519" x2="0.0007865307748106519" y1="528" y2="540" />
</g>
</g>
<g fill="hsl(300, 100%, 40%)">
<text y="572">isPrime.1_000_003.default</text>
<text y="572" x="936.375743619409" text-anchor="end">5.293 s</text>
</g>
<g>
<title>5.293 s ±  20 ms</title>
<rect y="578" rx="5" height="22" width="936.375743619409" fill="hsl(300, 100%, 80%)" stroke="hsl(300, 100%, 55%)" />
<g stroke="hsl(300, 100%, 40%)"><line x1="932.7514872388181" x2="940.0" y1="589" y2="589" />
<line x1="932.7514872388181" x2="932.7514872388181" y1="583" y2="595" />
<line x1="940.0" x2="940.0" y1="583" y2="595" />
</g>
</g>
<text fill="hsl(330, 100%, 40%)" y="627">isPrime.1_000_003.arithmoi 6.21 μs</text>
<g>
<title>6.21 μs ± 200 ns</title>
<rect y="633" rx="5" height="22" width="0.0010982682501577367" fill="hsl(330, 100%, 80%)" stroke="hsl(330, 100%, 55%)" />
<g stroke="hsl(330, 100%, 40%)"><line x1="0.0010629048024373901" x2="0.0011336316978780832" y1="644" y2="644" />
<line x1="0.0010629048024373901" x2="0.0010629048024373901" y1="638" y2="650" />
<line x1="0.0011336316978780832" x2="0.0011336316978780832" y1="638" y2="650" />
</g>
</g>
</g>
</svg>
