<svg xmlns="http://www.w3.org/2000/svg" height="667" width="960.0" font-size="16" font-family="sans-serif" stroke-width="2">
<g transform="translate(10.0 0)">
<text fill="hsl(0, 100%, 40%)" y="22">isPrime.2.default 13.1 ns</text>
<g>
<title>13.1 ns ± 1.2 ns</title>
<rect y="28" rx="5" height="22" width="0.0000023407592452232575" fill="hsl(0, 100%, 80%)" stroke="hsl(0, 100%, 55%)" />
<g stroke="hsl(0, 100%, 40%)"><line x1="0.000002119178604410211" x2="0.000002562339886036304" y1="39" y2="39" />
<line x1="0.000002119178604410211" x2="0.000002119178604410211" y1="33" y2="45" />
<line x1="0.000002562339886036304" x2="0.000002562339886036304" y1="33" y2="45" />
</g>
</g>
<text fill="hsl(30, 100%, 40%)" y="77">isPrime.2.arithmoi 18.4 ns</text>
<g>
<title>18.4 ns ± 364 ps</title>
<rect y="83" rx="5" height="22" width="0.0000033050652864314904" fill="hsl(30, 100%, 80%)" stroke="hsl(30, 100%, 55%)" />
<g stroke="hsl(30, 100%, 40%)"><line x1="0.0000032398101462567747" x2="0.000003370320426606206" y1="94" y2="94" />
<line x1="0.0000032398101462567747" x2="0.0000032398101462567747" y1="88" y2="100" />
<line x1="0.000003370320426606206" x2="0.000003370320426606206" y1="88" y2="100" />
</g>
</g>
<text fill="hsl(60, 100%, 40%)" y="132">isPrime.11.default 47.7 μs</text>
<g>
<title>47.7 μs ± 2.8 μs</title>
<rect y="138" rx="5" height="22" width="0.00855030769469651" fill="hsl(60, 100%, 80%)" stroke="hsl(60, 100%, 55%)" />
<g stroke="hsl(60, 100%, 40%)"><line x1="0.008050682789582977" x2="0.009049932599810044" y1="149" y2="149" />
<line x1="0.008050682789582977" x2="0.008050682789582977" y1="143" y2="155" />
<line x1="0.009049932599810044" x2="0.009049932599810044" y1="143" y2="155" />
</g>
</g>
<text fill="hsl(90, 100%, 40%)" y="187">isPrime.11.arithmoi 656  ns</text>
<g>
<title>656  ns ±  46 ns</title>
<rect y="193" rx="5" height="22" width="0.00011756072047201307" fill="hsl(90, 100%, 80%)" stroke="hsl(90, 100%, 55%)" />
<g stroke="hsl(90, 100%, 40%)"><line x1="0.00010934502661507109" x2="0.00012577641432895504" y1="204" y2="204" />
<line x1="0.00010934502661507109" x2="0.00010934502661507109" y1="198" y2="210" />
<line x1="0.00012577641432895504" x2="0.00012577641432895504" y1="198" y2="210" />
</g>
</g>
<text fill="hsl(120, 100%, 40%)" y="242">isPrime.1_009.default 91.1 μs</text>
<g>
<title>91.1 μs ± 5.8 μs</title>
<rect y="248" rx="5" height="22" width="0.01633510160328781" fill="hsl(120, 100%, 80%)" stroke="hsl(120, 100%, 55%)" />
<g stroke="hsl(120, 100%, 40%)"><line x1="0.015294198935124605" x2="0.017376004271451015" y1="259" y2="259" />
<line x1="0.015294198935124605" x2="0.015294198935124605" y1="253" y2="265" />
<line x1="0.017376004271451015" x2="0.017376004271451015" y1="253" y2="265" />
</g>
</g>
<text fill="hsl(150, 100%, 40%)" y="297">isPrime.1_009.arithmoi 2.57 μs</text>
<g>
<title>2.57 μs ± 165 ns</title>
<rect y="303" rx="5" height="22" width="0.0004604309469099134" fill="hsl(150, 100%, 80%)" stroke="hsl(150, 100%, 55%)" />
<g stroke="hsl(150, 100%, 40%)"><line x1="0.0004307685417085164" x2="0.0004900933521113103" y1="314" y2="314" />
<line x1="0.0004307685417085164" x2="0.0004307685417085164" y1="308" y2="320" />
<line x1="0.0004900933521113103" x2="0.0004900933521113103" y1="308" y2="320" />
</g>
</g>
<text fill="hsl(180, 100%, 40%)" y="352">isPrime.10_007.default 8.94 ms</text>
<g>
<title>8.94 ms ± 127 μs</title>
<rect y="358" rx="5" height="22" width="1.6033751528419249" fill="hsl(180, 100%, 80%)" stroke="hsl(180, 100%, 55%)" />
<g stroke="hsl(180, 100%, 40%)"><line x1="1.5805549000351766" x2="1.6261954056486732" y1="369" y2="369" />
<line x1="1.5805549000351766" x2="1.5805549000351766" y1="363" y2="375" />
<line x1="1.6261954056486732" x2="1.6261954056486732" y1="363" y2="375" />
</g>
</g>
<text fill="hsl(210, 100%, 40%)" y="407">isPrime.10_007.arithmoi 3.48 μs</text>
<g>
<title>3.48 μs ± 289 ns</title>
<rect y="413" rx="5" height="22" width="0.000624549237900592" fill="hsl(210, 100%, 80%)" stroke="hsl(210, 100%, 55%)" />
<g stroke="hsl(210, 100%, 40%)"><line x1="0.0005727284100731641" x2="0.0006763700657280198" y1="424" y2="424" />
<line x1="0.0005727284100731641" x2="0.0005727284100731641" y1="418" y2="430" />
<line x1="0.0006763700657280198" x2="0.0006763700657280198" y1="418" y2="430" />
</g>
</g>
<text fill="hsl(240, 100%, 40%)" y="462">isPrime.100_003.default 278  ms</text>
<g>
<title>278  ms ± 5.2 ms</title>
<rect y="468" rx="5" height="22" width="49.867053076124215" fill="hsl(240, 100%, 80%)" stroke="hsl(240, 100%, 55%)" />
<g stroke="hsl(240, 100%, 40%)"><line x1="48.928323007989775" x2="50.805783144258655" y1="479" y2="479" />
<line x1="48.928323007989775" x2="48.928323007989775" y1="473" y2="485" />
<line x1="50.805783144258655" x2="50.805783144258655" y1="473" y2="485" />
</g>
</g>
<text fill="hsl(270, 100%, 40%)" y="517">isPrime.100_003.arithmoi 5.12 μs</text>
<g>
<title>5.12 μs ± 388 ns</title>
<rect y="523" rx="5" height="22" width="0.0009182902317709083" fill="hsl(270, 100%, 80%)" stroke="hsl(270, 100%, 55%)" />
<g stroke="hsl(270, 100%, 40%)"><line x1="0.0008487537090202239" x2="0.0009878267545215928" y1="534" y2="534" />
<line x1="0.0008487537090202239" x2="0.0008487537090202239" y1="528" y2="540" />
<line x1="0.0009878267545215928" x2="0.0009878267545215928" y1="528" y2="540" />
</g>
</g>
<g fill="hsl(300, 100%, 40%)">
<text y="572">isPrime.1_000_003.default</text>
<text y="572" x="938.3472488546084" text-anchor="end">5.234 s</text>
</g>
<g>
<title>5.234 s ± 9.2 ms</title>
<rect y="578" rx="5" height="22" width="938.3472488546084" fill="hsl(300, 100%, 80%)" stroke="hsl(300, 100%, 55%)" />
<g stroke="hsl(300, 100%, 40%)"><line x1="936.6944977092169" x2="940.0" y1="589" y2="589" />
<line x1="936.6944977092169" x2="936.6944977092169" y1="583" y2="595" />
<line x1="940.0" x2="940.0" y1="583" y2="595" />
</g>
</g>
<text fill="hsl(330, 100%, 40%)" y="627">isPrime.1_000_003.arithmoi 8.25 μs</text>
<g>
<title>8.25 μs ± 661 ns</title>
<rect y="633" rx="5" height="22" width="0.0014788252527942827" fill="hsl(330, 100%, 80%)" stroke="hsl(330, 100%, 55%)" />
<g stroke="hsl(330, 100%, 40%)"><line x1="0.0013603746243117552" x2="0.0015972758812768102" y1="644" y2="644" />
<line x1="0.0013603746243117552" x2="0.0013603746243117552" y1="638" y2="650" />
<line x1="0.0015972758812768102" x2="0.0015972758812768102" y1="638" y2="650" />
</g>
</g>
</g>
</svg>
